<mxfile host="Electron" modified="2023-11-20T16:04:02.732Z" agent="Mozilla/5.0 (Windows NT 10.0; Win64; x64) AppleWebKit/537.36 (KHTML, like Gecko) draw.io/22.0.3 Chrome/114.0.5735.289 Electron/25.8.4 Safari/537.36" etag="Np4YYU5PJgmdhGdDtIqP" version="22.0.3" type="device">
  <diagram id="C5RBs43oDa-KdzZeNtuy" name="Page-1">
    <mxGraphModel dx="5753" dy="4876" grid="1" gridSize="10" guides="1" tooltips="1" connect="1" arrows="1" fold="1" page="1" pageScale="1" pageWidth="827" pageHeight="1169" math="0" shadow="0">
      <root>
        <mxCell id="WIyWlLk6GJQsqaUBKTNV-0" />
        <mxCell id="WIyWlLk6GJQsqaUBKTNV-1" parent="WIyWlLk6GJQsqaUBKTNV-0" />
        <mxCell id="Rr3VeNSQsfOW8-WBwf2K-2" style="edgeStyle=orthogonalEdgeStyle;rounded=0;orthogonalLoop=1;jettySize=auto;html=1;entryX=0.5;entryY=0;entryDx=0;entryDy=0;" parent="WIyWlLk6GJQsqaUBKTNV-1" source="Rr3VeNSQsfOW8-WBwf2K-0" target="Rr3VeNSQsfOW8-WBwf2K-3" edge="1">
          <mxGeometry relative="1" as="geometry">
            <mxPoint x="410" y="190" as="targetPoint" />
          </mxGeometry>
        </mxCell>
        <mxCell id="Rr3VeNSQsfOW8-WBwf2K-0" value="start" style="ellipse;whiteSpace=wrap;html=1;" parent="WIyWlLk6GJQsqaUBKTNV-1" vertex="1">
          <mxGeometry x="350" y="-30" width="120" height="80" as="geometry" />
        </mxCell>
        <mxCell id="Rr3VeNSQsfOW8-WBwf2K-5" style="edgeStyle=orthogonalEdgeStyle;rounded=0;orthogonalLoop=1;jettySize=auto;html=1;entryX=0.5;entryY=0;entryDx=0;entryDy=0;" parent="WIyWlLk6GJQsqaUBKTNV-1" source="Rr3VeNSQsfOW8-WBwf2K-3" target="Rr3VeNSQsfOW8-WBwf2K-6" edge="1">
          <mxGeometry relative="1" as="geometry">
            <mxPoint x="410" y="290" as="targetPoint" />
          </mxGeometry>
        </mxCell>
        <mxCell id="Rr3VeNSQsfOW8-WBwf2K-3" value="&amp;nbsp;col ,row" style="shape=parallelogram;perimeter=parallelogramPerimeter;whiteSpace=wrap;html=1;fixedSize=1;" parent="WIyWlLk6GJQsqaUBKTNV-1" vertex="1">
          <mxGeometry x="335" y="120" width="150" height="80" as="geometry" />
        </mxCell>
        <mxCell id="Rr3VeNSQsfOW8-WBwf2K-9" value="" style="edgeStyle=orthogonalEdgeStyle;rounded=0;orthogonalLoop=1;jettySize=auto;html=1;" parent="WIyWlLk6GJQsqaUBKTNV-1" source="Rr3VeNSQsfOW8-WBwf2K-6" target="Rr3VeNSQsfOW8-WBwf2K-8" edge="1">
          <mxGeometry relative="1" as="geometry" />
        </mxCell>
        <mxCell id="Rr3VeNSQsfOW8-WBwf2K-6" value="i=0,j=0" style="rounded=1;whiteSpace=wrap;html=1;" parent="WIyWlLk6GJQsqaUBKTNV-1" vertex="1">
          <mxGeometry x="350" y="260" width="120" height="60" as="geometry" />
        </mxCell>
        <mxCell id="Rr3VeNSQsfOW8-WBwf2K-11" value="" style="edgeStyle=orthogonalEdgeStyle;rounded=0;orthogonalLoop=1;jettySize=auto;html=1;" parent="WIyWlLk6GJQsqaUBKTNV-1" source="Rr3VeNSQsfOW8-WBwf2K-8" target="Rr3VeNSQsfOW8-WBwf2K-10" edge="1">
          <mxGeometry relative="1" as="geometry" />
        </mxCell>
        <mxCell id="Rr3VeNSQsfOW8-WBwf2K-23" value="true" style="edgeLabel;html=1;align=center;verticalAlign=middle;resizable=0;points=[];" parent="Rr3VeNSQsfOW8-WBwf2K-11" vertex="1" connectable="0">
          <mxGeometry x="-0.45" relative="1" as="geometry">
            <mxPoint as="offset" />
          </mxGeometry>
        </mxCell>
        <mxCell id="Rr3VeNSQsfOW8-WBwf2K-25" style="edgeStyle=orthogonalEdgeStyle;rounded=0;orthogonalLoop=1;jettySize=auto;html=1;" parent="WIyWlLk6GJQsqaUBKTNV-1" source="Rr3VeNSQsfOW8-WBwf2K-8" target="Rr3VeNSQsfOW8-WBwf2K-27" edge="1">
          <mxGeometry relative="1" as="geometry">
            <mxPoint x="129" y="1120" as="targetPoint" />
          </mxGeometry>
        </mxCell>
        <mxCell id="Rr3VeNSQsfOW8-WBwf2K-26" value="false" style="edgeLabel;html=1;align=center;verticalAlign=middle;resizable=0;points=[];" parent="Rr3VeNSQsfOW8-WBwf2K-25" vertex="1" connectable="0">
          <mxGeometry x="0.0629" relative="1" as="geometry">
            <mxPoint as="offset" />
          </mxGeometry>
        </mxCell>
        <mxCell id="Rr3VeNSQsfOW8-WBwf2K-8" value="i&amp;lt;row" style="rhombus;whiteSpace=wrap;html=1;rounded=1;" parent="WIyWlLk6GJQsqaUBKTNV-1" vertex="1">
          <mxGeometry x="370" y="390" width="80" height="80" as="geometry" />
        </mxCell>
        <mxCell id="Rr3VeNSQsfOW8-WBwf2K-15" value="" style="edgeStyle=orthogonalEdgeStyle;rounded=0;orthogonalLoop=1;jettySize=auto;html=1;" parent="WIyWlLk6GJQsqaUBKTNV-1" source="Rr3VeNSQsfOW8-WBwf2K-10" target="Rr3VeNSQsfOW8-WBwf2K-14" edge="1">
          <mxGeometry relative="1" as="geometry" />
        </mxCell>
        <mxCell id="Rr3VeNSQsfOW8-WBwf2K-22" value="true" style="edgeLabel;html=1;align=center;verticalAlign=middle;resizable=0;points=[];" parent="Rr3VeNSQsfOW8-WBwf2K-15" vertex="1" connectable="0">
          <mxGeometry x="-0.2889" y="3" relative="1" as="geometry">
            <mxPoint as="offset" />
          </mxGeometry>
        </mxCell>
        <mxCell id="Rr3VeNSQsfOW8-WBwf2K-20" value="" style="edgeStyle=orthogonalEdgeStyle;rounded=0;orthogonalLoop=1;jettySize=auto;html=1;" parent="WIyWlLk6GJQsqaUBKTNV-1" source="Rr3VeNSQsfOW8-WBwf2K-10" target="Rr3VeNSQsfOW8-WBwf2K-19" edge="1">
          <mxGeometry relative="1" as="geometry" />
        </mxCell>
        <mxCell id="Rr3VeNSQsfOW8-WBwf2K-21" value="false" style="edgeLabel;html=1;align=center;verticalAlign=middle;resizable=0;points=[];" parent="Rr3VeNSQsfOW8-WBwf2K-20" vertex="1" connectable="0">
          <mxGeometry x="-0.0333" y="-1" relative="1" as="geometry">
            <mxPoint as="offset" />
          </mxGeometry>
        </mxCell>
        <mxCell id="Rr3VeNSQsfOW8-WBwf2K-10" value="j&amp;lt;col" style="rhombus;whiteSpace=wrap;html=1;rounded=1;" parent="WIyWlLk6GJQsqaUBKTNV-1" vertex="1">
          <mxGeometry x="370" y="550" width="80" height="80" as="geometry" />
        </mxCell>
        <mxCell id="Rr3VeNSQsfOW8-WBwf2K-17" value="" style="edgeStyle=orthogonalEdgeStyle;rounded=0;orthogonalLoop=1;jettySize=auto;html=1;" parent="WIyWlLk6GJQsqaUBKTNV-1" source="Rr3VeNSQsfOW8-WBwf2K-14" target="Rr3VeNSQsfOW8-WBwf2K-16" edge="1">
          <mxGeometry relative="1" as="geometry" />
        </mxCell>
        <mxCell id="Rr3VeNSQsfOW8-WBwf2K-14" value="arr[i][j]" style="shape=parallelogram;perimeter=parallelogramPerimeter;whiteSpace=wrap;html=1;fixedSize=1;rounded=1;" parent="WIyWlLk6GJQsqaUBKTNV-1" vertex="1">
          <mxGeometry x="350" y="720" width="120" height="60" as="geometry" />
        </mxCell>
        <mxCell id="Rr3VeNSQsfOW8-WBwf2K-18" style="edgeStyle=orthogonalEdgeStyle;rounded=0;orthogonalLoop=1;jettySize=auto;html=1;entryX=0;entryY=0.5;entryDx=0;entryDy=0;" parent="WIyWlLk6GJQsqaUBKTNV-1" source="Rr3VeNSQsfOW8-WBwf2K-16" target="Rr3VeNSQsfOW8-WBwf2K-10" edge="1">
          <mxGeometry relative="1" as="geometry">
            <mxPoint x="250" y="600" as="targetPoint" />
            <Array as="points">
              <mxPoint x="251" y="890" />
              <mxPoint x="251" y="590" />
            </Array>
          </mxGeometry>
        </mxCell>
        <mxCell id="Rr3VeNSQsfOW8-WBwf2K-16" value="j++" style="rounded=1;whiteSpace=wrap;html=1;" parent="WIyWlLk6GJQsqaUBKTNV-1" vertex="1">
          <mxGeometry x="350" y="860" width="120" height="60" as="geometry" />
        </mxCell>
        <mxCell id="Rr3VeNSQsfOW8-WBwf2K-24" style="edgeStyle=orthogonalEdgeStyle;rounded=0;orthogonalLoop=1;jettySize=auto;html=1;entryX=1;entryY=0.5;entryDx=0;entryDy=0;" parent="WIyWlLk6GJQsqaUBKTNV-1" source="Rr3VeNSQsfOW8-WBwf2K-19" target="Rr3VeNSQsfOW8-WBwf2K-8" edge="1">
          <mxGeometry relative="1" as="geometry">
            <mxPoint x="570" y="380" as="targetPoint" />
            <Array as="points">
              <mxPoint x="570" y="470" />
              <mxPoint x="571" y="470" />
              <mxPoint x="571" y="430" />
            </Array>
          </mxGeometry>
        </mxCell>
        <mxCell id="Rr3VeNSQsfOW8-WBwf2K-19" value="i++" style="whiteSpace=wrap;html=1;rounded=1;" parent="WIyWlLk6GJQsqaUBKTNV-1" vertex="1">
          <mxGeometry x="510" y="560" width="120" height="60" as="geometry" />
        </mxCell>
        <mxCell id="Rr3VeNSQsfOW8-WBwf2K-29" value="" style="edgeStyle=orthogonalEdgeStyle;rounded=0;orthogonalLoop=1;jettySize=auto;html=1;" parent="WIyWlLk6GJQsqaUBKTNV-1" source="Rr3VeNSQsfOW8-WBwf2K-27" target="Rr3VeNSQsfOW8-WBwf2K-28" edge="1">
          <mxGeometry relative="1" as="geometry" />
        </mxCell>
        <mxCell id="Rr3VeNSQsfOW8-WBwf2K-27" value="IN MENU" style="rounded=1;whiteSpace=wrap;html=1;" parent="WIyWlLk6GJQsqaUBKTNV-1" vertex="1">
          <mxGeometry x="69" y="1090" width="120" height="60" as="geometry" />
        </mxCell>
        <mxCell id="Rr3VeNSQsfOW8-WBwf2K-31" value="" style="edgeStyle=orthogonalEdgeStyle;rounded=0;orthogonalLoop=1;jettySize=auto;html=1;" parent="WIyWlLk6GJQsqaUBKTNV-1" source="Rr3VeNSQsfOW8-WBwf2K-28" target="Rr3VeNSQsfOW8-WBwf2K-30" edge="1">
          <mxGeometry relative="1" as="geometry" />
        </mxCell>
        <mxCell id="Rr3VeNSQsfOW8-WBwf2K-28" value="choice" style="shape=parallelogram;perimeter=parallelogramPerimeter;whiteSpace=wrap;html=1;fixedSize=1;rounded=1;" parent="WIyWlLk6GJQsqaUBKTNV-1" vertex="1">
          <mxGeometry x="69" y="1230" width="120" height="60" as="geometry" />
        </mxCell>
        <mxCell id="Rr3VeNSQsfOW8-WBwf2K-50" style="edgeStyle=orthogonalEdgeStyle;rounded=0;orthogonalLoop=1;jettySize=auto;html=1;" parent="WIyWlLk6GJQsqaUBKTNV-1" source="Rr3VeNSQsfOW8-WBwf2K-30" target="Rr3VeNSQsfOW8-WBwf2K-34" edge="1">
          <mxGeometry relative="1" as="geometry">
            <Array as="points">
              <mxPoint x="210" y="1430" />
              <mxPoint x="210" y="1430" />
            </Array>
          </mxGeometry>
        </mxCell>
        <mxCell id="hJrjNlMtUNx4-TJ2uSyi-0" value="true" style="edgeLabel;html=1;align=center;verticalAlign=middle;resizable=0;points=[];" vertex="1" connectable="0" parent="Rr3VeNSQsfOW8-WBwf2K-50">
          <mxGeometry x="-0.1775" y="-4" relative="1" as="geometry">
            <mxPoint as="offset" />
          </mxGeometry>
        </mxCell>
        <mxCell id="Rr3VeNSQsfOW8-WBwf2K-55" value="" style="edgeStyle=orthogonalEdgeStyle;rounded=0;orthogonalLoop=1;jettySize=auto;html=1;" parent="WIyWlLk6GJQsqaUBKTNV-1" source="Rr3VeNSQsfOW8-WBwf2K-30" target="Rr3VeNSQsfOW8-WBwf2K-54" edge="1">
          <mxGeometry relative="1" as="geometry" />
        </mxCell>
        <mxCell id="Rr3VeNSQsfOW8-WBwf2K-131" value="falese" style="edgeLabel;html=1;align=center;verticalAlign=middle;resizable=0;points=[];" parent="Rr3VeNSQsfOW8-WBwf2K-55" vertex="1" connectable="0">
          <mxGeometry x="-0.0857" y="-5" relative="1" as="geometry">
            <mxPoint y="1" as="offset" />
          </mxGeometry>
        </mxCell>
        <mxCell id="Rr3VeNSQsfOW8-WBwf2K-30" value="choice==1" style="rhombus;whiteSpace=wrap;html=1;rounded=1;" parent="WIyWlLk6GJQsqaUBKTNV-1" vertex="1">
          <mxGeometry x="73.5" y="1375" width="111" height="110" as="geometry" />
        </mxCell>
        <mxCell id="Rr3VeNSQsfOW8-WBwf2K-32" value="" style="edgeStyle=orthogonalEdgeStyle;rounded=0;orthogonalLoop=1;jettySize=auto;html=1;" parent="WIyWlLk6GJQsqaUBKTNV-1" source="Rr3VeNSQsfOW8-WBwf2K-34" target="Rr3VeNSQsfOW8-WBwf2K-39" edge="1">
          <mxGeometry relative="1" as="geometry" />
        </mxCell>
        <mxCell id="Rr3VeNSQsfOW8-WBwf2K-33" value="true" style="edgeLabel;html=1;align=center;verticalAlign=middle;resizable=0;points=[];" parent="Rr3VeNSQsfOW8-WBwf2K-32" vertex="1" connectable="0">
          <mxGeometry x="-0.45" relative="1" as="geometry">
            <mxPoint as="offset" />
          </mxGeometry>
        </mxCell>
        <mxCell id="Rr3VeNSQsfOW8-WBwf2K-57" style="edgeStyle=orthogonalEdgeStyle;rounded=0;orthogonalLoop=1;jettySize=auto;html=1;" parent="WIyWlLk6GJQsqaUBKTNV-1" source="Rr3VeNSQsfOW8-WBwf2K-34" edge="1">
          <mxGeometry relative="1" as="geometry">
            <mxPoint x="130" y="990" as="targetPoint" />
            <Array as="points">
              <mxPoint x="289" y="1620" />
              <mxPoint x="1190" y="1620" />
              <mxPoint x="1190" y="980" />
              <mxPoint x="130" y="980" />
            </Array>
          </mxGeometry>
        </mxCell>
        <mxCell id="Rr3VeNSQsfOW8-WBwf2K-58" value="false" style="edgeLabel;html=1;align=center;verticalAlign=middle;resizable=0;points=[];" parent="Rr3VeNSQsfOW8-WBwf2K-57" vertex="1" connectable="0">
          <mxGeometry x="-0.6391" y="-6" relative="1" as="geometry">
            <mxPoint as="offset" />
          </mxGeometry>
        </mxCell>
        <mxCell id="Rr3VeNSQsfOW8-WBwf2K-34" value="i&amp;lt;row" style="rhombus;whiteSpace=wrap;html=1;rounded=1;" parent="WIyWlLk6GJQsqaUBKTNV-1" vertex="1">
          <mxGeometry x="248.94" y="1390" width="80" height="80" as="geometry" />
        </mxCell>
        <mxCell id="Rr3VeNSQsfOW8-WBwf2K-35" value="" style="edgeStyle=orthogonalEdgeStyle;rounded=0;orthogonalLoop=1;jettySize=auto;html=1;" parent="WIyWlLk6GJQsqaUBKTNV-1" source="Rr3VeNSQsfOW8-WBwf2K-39" target="Rr3VeNSQsfOW8-WBwf2K-41" edge="1">
          <mxGeometry relative="1" as="geometry" />
        </mxCell>
        <mxCell id="Rr3VeNSQsfOW8-WBwf2K-36" value="true" style="edgeLabel;html=1;align=center;verticalAlign=middle;resizable=0;points=[];" parent="Rr3VeNSQsfOW8-WBwf2K-35" vertex="1" connectable="0">
          <mxGeometry x="-0.2889" y="3" relative="1" as="geometry">
            <mxPoint as="offset" />
          </mxGeometry>
        </mxCell>
        <mxCell id="Rr3VeNSQsfOW8-WBwf2K-53" value="false" style="edgeStyle=orthogonalEdgeStyle;rounded=0;orthogonalLoop=1;jettySize=auto;html=1;entryX=1;entryY=0.5;entryDx=0;entryDy=0;" parent="WIyWlLk6GJQsqaUBKTNV-1" source="Rr3VeNSQsfOW8-WBwf2K-39" target="Rr3VeNSQsfOW8-WBwf2K-45" edge="1">
          <mxGeometry relative="1" as="geometry">
            <Array as="points">
              <mxPoint x="490" y="1310" />
              <mxPoint x="369" y="1310" />
            </Array>
          </mxGeometry>
        </mxCell>
        <mxCell id="Rr3VeNSQsfOW8-WBwf2K-39" value="j&amp;lt;col" style="rhombus;whiteSpace=wrap;html=1;rounded=1;" parent="WIyWlLk6GJQsqaUBKTNV-1" vertex="1">
          <mxGeometry x="450" y="1390" width="80" height="80" as="geometry" />
        </mxCell>
        <mxCell id="Rr3VeNSQsfOW8-WBwf2K-40" value="" style="edgeStyle=orthogonalEdgeStyle;rounded=0;orthogonalLoop=1;jettySize=auto;html=1;" parent="WIyWlLk6GJQsqaUBKTNV-1" source="Rr3VeNSQsfOW8-WBwf2K-41" target="Rr3VeNSQsfOW8-WBwf2K-43" edge="1">
          <mxGeometry relative="1" as="geometry" />
        </mxCell>
        <mxCell id="Rr3VeNSQsfOW8-WBwf2K-41" value="arr[i][j]" style="shape=parallelogram;perimeter=parallelogramPerimeter;whiteSpace=wrap;html=1;fixedSize=1;rounded=1;" parent="WIyWlLk6GJQsqaUBKTNV-1" vertex="1">
          <mxGeometry x="630" y="1400" width="120" height="60" as="geometry" />
        </mxCell>
        <mxCell id="Rr3VeNSQsfOW8-WBwf2K-48" style="edgeStyle=orthogonalEdgeStyle;rounded=0;orthogonalLoop=1;jettySize=auto;html=1;entryX=0.5;entryY=1;entryDx=0;entryDy=0;" parent="WIyWlLk6GJQsqaUBKTNV-1" source="Rr3VeNSQsfOW8-WBwf2K-43" target="Rr3VeNSQsfOW8-WBwf2K-39" edge="1">
          <mxGeometry relative="1" as="geometry">
            <mxPoint x="490" y="1500" as="targetPoint" />
            <Array as="points">
              <mxPoint x="940" y="1520" />
              <mxPoint x="490" y="1520" />
            </Array>
          </mxGeometry>
        </mxCell>
        <mxCell id="Rr3VeNSQsfOW8-WBwf2K-43" value="j++" style="rounded=1;whiteSpace=wrap;html=1;" parent="WIyWlLk6GJQsqaUBKTNV-1" vertex="1">
          <mxGeometry x="880" y="1400" width="120" height="60" as="geometry" />
        </mxCell>
        <mxCell id="Rr3VeNSQsfOW8-WBwf2K-51" style="edgeStyle=orthogonalEdgeStyle;rounded=0;orthogonalLoop=1;jettySize=auto;html=1;entryX=0.5;entryY=0;entryDx=0;entryDy=0;" parent="WIyWlLk6GJQsqaUBKTNV-1" source="Rr3VeNSQsfOW8-WBwf2K-45" target="Rr3VeNSQsfOW8-WBwf2K-34" edge="1">
          <mxGeometry relative="1" as="geometry">
            <mxPoint x="289" y="1360" as="targetPoint" />
            <Array as="points">
              <mxPoint x="289" y="1290" />
              <mxPoint x="290" y="1330" />
              <mxPoint x="289" y="1330" />
            </Array>
          </mxGeometry>
        </mxCell>
        <mxCell id="Rr3VeNSQsfOW8-WBwf2K-45" value="i++" style="whiteSpace=wrap;html=1;rounded=1;" parent="WIyWlLk6GJQsqaUBKTNV-1" vertex="1">
          <mxGeometry x="248.94" y="1290" width="120" height="60" as="geometry" />
        </mxCell>
        <mxCell id="Rr3VeNSQsfOW8-WBwf2K-101" style="edgeStyle=orthogonalEdgeStyle;rounded=0;orthogonalLoop=1;jettySize=auto;html=1;entryX=0;entryY=0.5;entryDx=0;entryDy=0;" parent="WIyWlLk6GJQsqaUBKTNV-1" source="Rr3VeNSQsfOW8-WBwf2K-54" target="Rr3VeNSQsfOW8-WBwf2K-76" edge="1">
          <mxGeometry relative="1" as="geometry" />
        </mxCell>
        <mxCell id="hJrjNlMtUNx4-TJ2uSyi-1" value="true" style="edgeLabel;html=1;align=center;verticalAlign=middle;resizable=0;points=[];" vertex="1" connectable="0" parent="Rr3VeNSQsfOW8-WBwf2K-101">
          <mxGeometry x="-0.1341" y="2" relative="1" as="geometry">
            <mxPoint as="offset" />
          </mxGeometry>
        </mxCell>
        <mxCell id="Rr3VeNSQsfOW8-WBwf2K-126" value="" style="edgeStyle=orthogonalEdgeStyle;rounded=0;orthogonalLoop=1;jettySize=auto;html=1;" parent="WIyWlLk6GJQsqaUBKTNV-1" source="Rr3VeNSQsfOW8-WBwf2K-54" target="Rr3VeNSQsfOW8-WBwf2K-125" edge="1">
          <mxGeometry relative="1" as="geometry" />
        </mxCell>
        <mxCell id="Rr3VeNSQsfOW8-WBwf2K-132" value="false" style="edgeLabel;html=1;align=center;verticalAlign=middle;resizable=0;points=[];" parent="Rr3VeNSQsfOW8-WBwf2K-126" vertex="1" connectable="0">
          <mxGeometry x="0.0226" relative="1" as="geometry">
            <mxPoint y="1" as="offset" />
          </mxGeometry>
        </mxCell>
        <mxCell id="Rr3VeNSQsfOW8-WBwf2K-54" value="choice==2" style="rhombus;whiteSpace=wrap;html=1;rounded=1;" parent="WIyWlLk6GJQsqaUBKTNV-1" vertex="1">
          <mxGeometry x="73.5" y="1870" width="111" height="110" as="geometry" />
        </mxCell>
        <mxCell id="Rr3VeNSQsfOW8-WBwf2K-73" value="" style="edgeStyle=orthogonalEdgeStyle;rounded=0;orthogonalLoop=1;jettySize=auto;html=1;" parent="WIyWlLk6GJQsqaUBKTNV-1" source="Rr3VeNSQsfOW8-WBwf2K-76" target="Rr3VeNSQsfOW8-WBwf2K-80" edge="1">
          <mxGeometry relative="1" as="geometry" />
        </mxCell>
        <mxCell id="Rr3VeNSQsfOW8-WBwf2K-74" value="true" style="edgeLabel;html=1;align=center;verticalAlign=middle;resizable=0;points=[];" parent="Rr3VeNSQsfOW8-WBwf2K-73" vertex="1" connectable="0">
          <mxGeometry x="-0.45" relative="1" as="geometry">
            <mxPoint as="offset" />
          </mxGeometry>
        </mxCell>
        <mxCell id="Rr3VeNSQsfOW8-WBwf2K-124" style="edgeStyle=orthogonalEdgeStyle;rounded=0;orthogonalLoop=1;jettySize=auto;html=1;" parent="WIyWlLk6GJQsqaUBKTNV-1" source="Rr3VeNSQsfOW8-WBwf2K-76" edge="1">
          <mxGeometry relative="1" as="geometry">
            <mxPoint x="1010" y="990" as="targetPoint" />
            <Array as="points">
              <mxPoint x="351" y="2290" />
              <mxPoint x="2140" y="2290" />
              <mxPoint x="2140" y="980" />
              <mxPoint x="1010" y="980" />
            </Array>
          </mxGeometry>
        </mxCell>
        <mxCell id="Rr3VeNSQsfOW8-WBwf2K-128" value="false" style="edgeLabel;html=1;align=center;verticalAlign=middle;resizable=0;points=[];" parent="Rr3VeNSQsfOW8-WBwf2K-124" vertex="1" connectable="0">
          <mxGeometry x="-0.5512" y="-9" relative="1" as="geometry">
            <mxPoint as="offset" />
          </mxGeometry>
        </mxCell>
        <mxCell id="Rr3VeNSQsfOW8-WBwf2K-76" value="i&amp;lt;row" style="rhombus;whiteSpace=wrap;html=1;rounded=1;" parent="WIyWlLk6GJQsqaUBKTNV-1" vertex="1">
          <mxGeometry x="310" y="1880" width="80" height="80" as="geometry" />
        </mxCell>
        <mxCell id="Rr3VeNSQsfOW8-WBwf2K-77" value="" style="edgeStyle=orthogonalEdgeStyle;rounded=0;orthogonalLoop=1;jettySize=auto;html=1;entryX=0;entryY=0.5;entryDx=0;entryDy=0;" parent="WIyWlLk6GJQsqaUBKTNV-1" source="Rr3VeNSQsfOW8-WBwf2K-80" target="Rr3VeNSQsfOW8-WBwf2K-88" edge="1">
          <mxGeometry relative="1" as="geometry">
            <mxPoint x="700" y="1920" as="targetPoint" />
          </mxGeometry>
        </mxCell>
        <mxCell id="Rr3VeNSQsfOW8-WBwf2K-78" value="true" style="edgeLabel;html=1;align=center;verticalAlign=middle;resizable=0;points=[];" parent="Rr3VeNSQsfOW8-WBwf2K-77" vertex="1" connectable="0">
          <mxGeometry x="-0.2889" y="3" relative="1" as="geometry">
            <mxPoint as="offset" />
          </mxGeometry>
        </mxCell>
        <mxCell id="Rr3VeNSQsfOW8-WBwf2K-79" value="false" style="edgeStyle=orthogonalEdgeStyle;rounded=0;orthogonalLoop=1;jettySize=auto;html=1;entryX=1;entryY=0.5;entryDx=0;entryDy=0;" parent="WIyWlLk6GJQsqaUBKTNV-1" source="Rr3VeNSQsfOW8-WBwf2K-80" target="Rr3VeNSQsfOW8-WBwf2K-86" edge="1">
          <mxGeometry relative="1" as="geometry">
            <Array as="points">
              <mxPoint x="551.06" y="1800" />
              <mxPoint x="430.06" y="1800" />
            </Array>
          </mxGeometry>
        </mxCell>
        <mxCell id="Rr3VeNSQsfOW8-WBwf2K-80" value="j&amp;lt;col" style="rhombus;whiteSpace=wrap;html=1;rounded=1;" parent="WIyWlLk6GJQsqaUBKTNV-1" vertex="1">
          <mxGeometry x="511.06" y="1880" width="80" height="80" as="geometry" />
        </mxCell>
        <mxCell id="Rr3VeNSQsfOW8-WBwf2K-87" style="edgeStyle=orthogonalEdgeStyle;rounded=0;orthogonalLoop=1;jettySize=auto;html=1;" parent="WIyWlLk6GJQsqaUBKTNV-1" source="Rr3VeNSQsfOW8-WBwf2K-84" edge="1">
          <mxGeometry relative="1" as="geometry">
            <mxPoint x="480" y="1920" as="targetPoint" />
            <Array as="points">
              <mxPoint x="1620" y="2160" />
              <mxPoint x="480" y="2160" />
            </Array>
          </mxGeometry>
        </mxCell>
        <mxCell id="Rr3VeNSQsfOW8-WBwf2K-84" value="j++" style="rounded=1;whiteSpace=wrap;html=1;" parent="WIyWlLk6GJQsqaUBKTNV-1" vertex="1">
          <mxGeometry x="1520" y="1890" width="120" height="60" as="geometry" />
        </mxCell>
        <mxCell id="Rr3VeNSQsfOW8-WBwf2K-85" style="edgeStyle=orthogonalEdgeStyle;rounded=0;orthogonalLoop=1;jettySize=auto;html=1;entryX=0.5;entryY=0;entryDx=0;entryDy=0;" parent="WIyWlLk6GJQsqaUBKTNV-1" source="Rr3VeNSQsfOW8-WBwf2K-86" target="Rr3VeNSQsfOW8-WBwf2K-76" edge="1">
          <mxGeometry relative="1" as="geometry">
            <mxPoint x="350.06" y="1850" as="targetPoint" />
            <Array as="points">
              <mxPoint x="350.06" y="1780" />
              <mxPoint x="351.06" y="1820" />
              <mxPoint x="350.06" y="1820" />
            </Array>
          </mxGeometry>
        </mxCell>
        <mxCell id="Rr3VeNSQsfOW8-WBwf2K-86" value="i++" style="whiteSpace=wrap;html=1;rounded=1;" parent="WIyWlLk6GJQsqaUBKTNV-1" vertex="1">
          <mxGeometry x="310" y="1780" width="120" height="60" as="geometry" />
        </mxCell>
        <mxCell id="Rr3VeNSQsfOW8-WBwf2K-92" value="" style="edgeStyle=orthogonalEdgeStyle;rounded=0;orthogonalLoop=1;jettySize=auto;html=1;" parent="WIyWlLk6GJQsqaUBKTNV-1" source="Rr3VeNSQsfOW8-WBwf2K-88" target="Rr3VeNSQsfOW8-WBwf2K-91" edge="1">
          <mxGeometry relative="1" as="geometry" />
        </mxCell>
        <mxCell id="Rr3VeNSQsfOW8-WBwf2K-88" value="arr[i][j]&lt;br&gt;f=i-1" style="shape=parallelogram;perimeter=parallelogramPerimeter;whiteSpace=wrap;html=1;fixedSize=1;" parent="WIyWlLk6GJQsqaUBKTNV-1" vertex="1">
          <mxGeometry x="690" y="1890" width="120" height="60" as="geometry" />
        </mxCell>
        <mxCell id="Rr3VeNSQsfOW8-WBwf2K-94" value="" style="edgeStyle=orthogonalEdgeStyle;rounded=0;orthogonalLoop=1;jettySize=auto;html=1;" parent="WIyWlLk6GJQsqaUBKTNV-1" source="Rr3VeNSQsfOW8-WBwf2K-91" target="Rr3VeNSQsfOW8-WBwf2K-93" edge="1">
          <mxGeometry relative="1" as="geometry" />
        </mxCell>
        <mxCell id="Rr3VeNSQsfOW8-WBwf2K-95" value="true" style="edgeLabel;html=1;align=center;verticalAlign=middle;resizable=0;points=[];" parent="Rr3VeNSQsfOW8-WBwf2K-94" vertex="1" connectable="0">
          <mxGeometry x="-0.2099" y="6" relative="1" as="geometry">
            <mxPoint as="offset" />
          </mxGeometry>
        </mxCell>
        <mxCell id="Rr3VeNSQsfOW8-WBwf2K-97" value="" style="edgeStyle=orthogonalEdgeStyle;rounded=0;orthogonalLoop=1;jettySize=auto;html=1;" parent="WIyWlLk6GJQsqaUBKTNV-1" source="Rr3VeNSQsfOW8-WBwf2K-91" target="Rr3VeNSQsfOW8-WBwf2K-96" edge="1">
          <mxGeometry relative="1" as="geometry" />
        </mxCell>
        <mxCell id="Rr3VeNSQsfOW8-WBwf2K-98" value="false" style="edgeLabel;html=1;align=center;verticalAlign=middle;resizable=0;points=[];" parent="Rr3VeNSQsfOW8-WBwf2K-97" vertex="1" connectable="0">
          <mxGeometry x="-0.2061" y="1" relative="1" as="geometry">
            <mxPoint as="offset" />
          </mxGeometry>
        </mxCell>
        <mxCell id="Rr3VeNSQsfOW8-WBwf2K-91" value="&#xa;&lt;div style=&quot;color: rgb(212, 212, 212); background-color: rgb(30, 30, 30); font-family: Consolas, &amp;quot;Courier New&amp;quot;, monospace; font-weight: normal; font-size: 14px; line-height: 19px;&quot;&gt;&lt;div&gt;&lt;span style=&quot;color: #c8c8c8;&quot;&gt;f&lt;/span&gt;&lt;span style=&quot;color: #d4d4d4;&quot;&gt;&amp;gt;=&lt;/span&gt;&lt;span style=&quot;color: #b5cea8;&quot;&gt;0&lt;/span&gt;&lt;span style=&quot;color: #d4d4d4;&quot;&gt;&amp;amp;&amp;amp;&lt;/span&gt;&lt;span style=&quot;color: #c8c8c8;&quot;&gt;key&lt;/span&gt;&lt;span style=&quot;color: #d4d4d4;&quot;&gt;&amp;lt;&lt;/span&gt;&lt;span style=&quot;color: #c8c8c8;&quot;&gt;arr&lt;/span&gt;&lt;span style=&quot;color: #d4d4d4;&quot;&gt;[&lt;/span&gt;&lt;span style=&quot;color: #c8c8c8;&quot;&gt;i&lt;/span&gt;&lt;span style=&quot;color: #d4d4d4;&quot;&gt;][&lt;/span&gt;&lt;span style=&quot;color: #c8c8c8;&quot;&gt;f&lt;/span&gt;&lt;/div&gt;&lt;/div&gt;&#xa;&#xa;" style="rhombus;whiteSpace=wrap;html=1;" parent="WIyWlLk6GJQsqaUBKTNV-1" vertex="1">
          <mxGeometry x="870" y="1850" width="180" height="140" as="geometry" />
        </mxCell>
        <mxCell id="Rr3VeNSQsfOW8-WBwf2K-100" style="edgeStyle=orthogonalEdgeStyle;rounded=0;orthogonalLoop=1;jettySize=auto;html=1;" parent="WIyWlLk6GJQsqaUBKTNV-1" source="Rr3VeNSQsfOW8-WBwf2K-93" edge="1">
          <mxGeometry relative="1" as="geometry">
            <mxPoint x="830" y="1920" as="targetPoint" />
          </mxGeometry>
        </mxCell>
        <mxCell id="Rr3VeNSQsfOW8-WBwf2K-93" value="&lt;br&gt;&lt;div style=&quot;color: rgb(212, 212, 212); background-color: rgb(30, 30, 30); font-family: Consolas, &amp;quot;Courier New&amp;quot;, monospace; font-weight: normal; font-size: 14px; line-height: 19px;&quot;&gt;&lt;div&gt;&lt;span style=&quot;color: #d4d4d4;&quot;&gt;&amp;nbsp; &lt;/span&gt;&lt;span style=&quot;color: #c8c8c8;&quot;&gt;arr&lt;/span&gt;&lt;span style=&quot;color: #d4d4d4;&quot;&gt;[&lt;/span&gt;&lt;span style=&quot;color: #c8c8c8;&quot;&gt;i&lt;/span&gt;&lt;span style=&quot;color: #d4d4d4;&quot;&gt;][&lt;/span&gt;&lt;span style=&quot;color: #c8c8c8;&quot;&gt;f&lt;/span&gt;&lt;span style=&quot;color: #d4d4d4;&quot;&gt;+&lt;/span&gt;&lt;span style=&quot;color: #b5cea8;&quot;&gt;1&lt;/span&gt;&lt;span style=&quot;color: #d4d4d4;&quot;&gt;]=&lt;/span&gt;&lt;span style=&quot;color: #c8c8c8;&quot;&gt;arr&lt;/span&gt;&lt;span style=&quot;color: #d4d4d4;&quot;&gt;[&lt;/span&gt;&lt;span style=&quot;color: #c8c8c8;&quot;&gt;i&lt;/span&gt;&lt;span style=&quot;color: #d4d4d4;&quot;&gt;][&lt;/span&gt;&lt;span style=&quot;color: #c8c8c8;&quot;&gt;f&lt;/span&gt;&lt;span style=&quot;color: #d4d4d4;&quot;&gt;]&lt;/span&gt;&lt;/div&gt;&lt;div&gt;&amp;nbsp; &amp;nbsp;&lt;span style=&quot;color: rgb(200, 200, 200);&quot;&gt;f&lt;/span&gt;-=&lt;span style=&quot;color: rgb(181, 206, 168);&quot;&gt;1&lt;/span&gt;;&lt;/div&gt;&lt;/div&gt;&lt;br&gt;" style="whiteSpace=wrap;html=1;" parent="WIyWlLk6GJQsqaUBKTNV-1" vertex="1">
          <mxGeometry x="850" y="2070" width="220" height="60" as="geometry" />
        </mxCell>
        <mxCell id="Rr3VeNSQsfOW8-WBwf2K-99" style="edgeStyle=orthogonalEdgeStyle;rounded=0;orthogonalLoop=1;jettySize=auto;html=1;entryX=0;entryY=0.5;entryDx=0;entryDy=0;" parent="WIyWlLk6GJQsqaUBKTNV-1" source="Rr3VeNSQsfOW8-WBwf2K-96" target="Rr3VeNSQsfOW8-WBwf2K-84" edge="1">
          <mxGeometry relative="1" as="geometry" />
        </mxCell>
        <mxCell id="Rr3VeNSQsfOW8-WBwf2K-96" value="&#xa;&lt;div style=&quot;color: rgb(212, 212, 212); background-color: rgb(30, 30, 30); font-family: Consolas, &amp;quot;Courier New&amp;quot;, monospace; font-weight: normal; font-size: 14px; line-height: 19px;&quot;&gt;&lt;div&gt;&lt;span style=&quot;color: #d4d4d4;&quot;&gt;&amp;nbsp;&lt;/span&gt;&lt;span style=&quot;color: #c8c8c8;&quot;&gt;arr&lt;/span&gt;&lt;span style=&quot;color: #d4d4d4;&quot;&gt;[&lt;/span&gt;&lt;span style=&quot;color: #c8c8c8;&quot;&gt;i&lt;/span&gt;&lt;span style=&quot;color: #d4d4d4;&quot;&gt;][&lt;/span&gt;&lt;span style=&quot;color: #c8c8c8;&quot;&gt;f&lt;/span&gt;&lt;span style=&quot;color: #d4d4d4;&quot;&gt;+&lt;/span&gt;&lt;span style=&quot;color: #b5cea8;&quot;&gt;1&lt;/span&gt;&lt;span style=&quot;color: #d4d4d4;&quot;&gt;]=&lt;/span&gt;&lt;span style=&quot;color: #c8c8c8;&quot;&gt;key&lt;/span&gt;&lt;span style=&quot;color: #d4d4d4;&quot;&gt;;&lt;/span&gt;&lt;/div&gt;&lt;/div&gt;&#xa;&#xa;" style="whiteSpace=wrap;html=1;" parent="WIyWlLk6GJQsqaUBKTNV-1" vertex="1">
          <mxGeometry x="1160" y="1890" width="190" height="60" as="geometry" />
        </mxCell>
        <mxCell id="Rr3VeNSQsfOW8-WBwf2K-102" value="" style="edgeStyle=orthogonalEdgeStyle;rounded=0;orthogonalLoop=1;jettySize=auto;html=1;" parent="WIyWlLk6GJQsqaUBKTNV-1" source="Rr3VeNSQsfOW8-WBwf2K-104" target="Rr3VeNSQsfOW8-WBwf2K-108" edge="1">
          <mxGeometry relative="1" as="geometry" />
        </mxCell>
        <mxCell id="Rr3VeNSQsfOW8-WBwf2K-103" value="true" style="edgeLabel;html=1;align=center;verticalAlign=middle;resizable=0;points=[];" parent="Rr3VeNSQsfOW8-WBwf2K-102" vertex="1" connectable="0">
          <mxGeometry x="-0.45" relative="1" as="geometry">
            <mxPoint as="offset" />
          </mxGeometry>
        </mxCell>
        <mxCell id="Rr3VeNSQsfOW8-WBwf2K-129" style="edgeStyle=orthogonalEdgeStyle;rounded=0;orthogonalLoop=1;jettySize=auto;html=1;" parent="WIyWlLk6GJQsqaUBKTNV-1" source="Rr3VeNSQsfOW8-WBwf2K-104" edge="1">
          <mxGeometry relative="1" as="geometry">
            <mxPoint x="2140" y="2142.5" as="targetPoint" />
            <Array as="points">
              <mxPoint x="361" y="2960" />
              <mxPoint x="2140" y="2960" />
            </Array>
          </mxGeometry>
        </mxCell>
        <mxCell id="Rr3VeNSQsfOW8-WBwf2K-130" value="false" style="edgeLabel;html=1;align=center;verticalAlign=middle;resizable=0;points=[];" parent="Rr3VeNSQsfOW8-WBwf2K-129" vertex="1" connectable="0">
          <mxGeometry x="-0.8626" y="-1" relative="1" as="geometry">
            <mxPoint x="-1" y="-1" as="offset" />
          </mxGeometry>
        </mxCell>
        <mxCell id="Rr3VeNSQsfOW8-WBwf2K-104" value="i&amp;lt;col" style="rhombus;whiteSpace=wrap;html=1;rounded=1;" parent="WIyWlLk6GJQsqaUBKTNV-1" vertex="1">
          <mxGeometry x="320" y="2500" width="80" height="80" as="geometry" />
        </mxCell>
        <mxCell id="Rr3VeNSQsfOW8-WBwf2K-105" value="" style="edgeStyle=orthogonalEdgeStyle;rounded=0;orthogonalLoop=1;jettySize=auto;html=1;entryX=0;entryY=0.5;entryDx=0;entryDy=0;" parent="WIyWlLk6GJQsqaUBKTNV-1" source="Rr3VeNSQsfOW8-WBwf2K-108" target="Rr3VeNSQsfOW8-WBwf2K-114" edge="1">
          <mxGeometry relative="1" as="geometry">
            <mxPoint x="710" y="2540" as="targetPoint" />
          </mxGeometry>
        </mxCell>
        <mxCell id="Rr3VeNSQsfOW8-WBwf2K-106" value="true" style="edgeLabel;html=1;align=center;verticalAlign=middle;resizable=0;points=[];" parent="Rr3VeNSQsfOW8-WBwf2K-105" vertex="1" connectable="0">
          <mxGeometry x="-0.2889" y="3" relative="1" as="geometry">
            <mxPoint as="offset" />
          </mxGeometry>
        </mxCell>
        <mxCell id="Rr3VeNSQsfOW8-WBwf2K-107" value="false" style="edgeStyle=orthogonalEdgeStyle;rounded=0;orthogonalLoop=1;jettySize=auto;html=1;entryX=1;entryY=0.5;entryDx=0;entryDy=0;" parent="WIyWlLk6GJQsqaUBKTNV-1" source="Rr3VeNSQsfOW8-WBwf2K-108" target="Rr3VeNSQsfOW8-WBwf2K-112" edge="1">
          <mxGeometry relative="1" as="geometry">
            <Array as="points">
              <mxPoint x="561.06" y="2420" />
              <mxPoint x="440.06" y="2420" />
            </Array>
          </mxGeometry>
        </mxCell>
        <mxCell id="Rr3VeNSQsfOW8-WBwf2K-108" value="j&amp;lt;row" style="rhombus;whiteSpace=wrap;html=1;rounded=1;" parent="WIyWlLk6GJQsqaUBKTNV-1" vertex="1">
          <mxGeometry x="521.06" y="2500" width="80" height="80" as="geometry" />
        </mxCell>
        <mxCell id="Rr3VeNSQsfOW8-WBwf2K-109" style="edgeStyle=orthogonalEdgeStyle;rounded=0;orthogonalLoop=1;jettySize=auto;html=1;entryX=0.417;entryY=0.963;entryDx=0;entryDy=0;entryPerimeter=0;" parent="WIyWlLk6GJQsqaUBKTNV-1" source="Rr3VeNSQsfOW8-WBwf2K-110" target="Rr3VeNSQsfOW8-WBwf2K-108" edge="1">
          <mxGeometry relative="1" as="geometry">
            <mxPoint x="650" y="2840" as="targetPoint" />
            <Array as="points">
              <mxPoint x="1630" y="2780" />
              <mxPoint x="554" y="2780" />
            </Array>
          </mxGeometry>
        </mxCell>
        <mxCell id="Rr3VeNSQsfOW8-WBwf2K-110" value="j++" style="rounded=1;whiteSpace=wrap;html=1;" parent="WIyWlLk6GJQsqaUBKTNV-1" vertex="1">
          <mxGeometry x="1530" y="2510" width="120" height="60" as="geometry" />
        </mxCell>
        <mxCell id="Rr3VeNSQsfOW8-WBwf2K-111" style="edgeStyle=orthogonalEdgeStyle;rounded=0;orthogonalLoop=1;jettySize=auto;html=1;entryX=0.5;entryY=0;entryDx=0;entryDy=0;" parent="WIyWlLk6GJQsqaUBKTNV-1" source="Rr3VeNSQsfOW8-WBwf2K-112" target="Rr3VeNSQsfOW8-WBwf2K-104" edge="1">
          <mxGeometry relative="1" as="geometry">
            <mxPoint x="360.06" y="2470" as="targetPoint" />
            <Array as="points">
              <mxPoint x="360.06" y="2400" />
              <mxPoint x="361.06" y="2440" />
              <mxPoint x="360.06" y="2440" />
            </Array>
          </mxGeometry>
        </mxCell>
        <mxCell id="Rr3VeNSQsfOW8-WBwf2K-112" value="i++" style="whiteSpace=wrap;html=1;rounded=1;" parent="WIyWlLk6GJQsqaUBKTNV-1" vertex="1">
          <mxGeometry x="320" y="2400" width="120" height="60" as="geometry" />
        </mxCell>
        <mxCell id="Rr3VeNSQsfOW8-WBwf2K-113" value="" style="edgeStyle=orthogonalEdgeStyle;rounded=0;orthogonalLoop=1;jettySize=auto;html=1;" parent="WIyWlLk6GJQsqaUBKTNV-1" source="Rr3VeNSQsfOW8-WBwf2K-114" target="Rr3VeNSQsfOW8-WBwf2K-119" edge="1">
          <mxGeometry relative="1" as="geometry" />
        </mxCell>
        <mxCell id="Rr3VeNSQsfOW8-WBwf2K-114" value="arr[f][i]&lt;br&gt;f=i-1" style="shape=parallelogram;perimeter=parallelogramPerimeter;whiteSpace=wrap;html=1;fixedSize=1;" parent="WIyWlLk6GJQsqaUBKTNV-1" vertex="1">
          <mxGeometry x="700" y="2510" width="120" height="60" as="geometry" />
        </mxCell>
        <mxCell id="Rr3VeNSQsfOW8-WBwf2K-115" value="" style="edgeStyle=orthogonalEdgeStyle;rounded=0;orthogonalLoop=1;jettySize=auto;html=1;" parent="WIyWlLk6GJQsqaUBKTNV-1" source="Rr3VeNSQsfOW8-WBwf2K-119" target="Rr3VeNSQsfOW8-WBwf2K-121" edge="1">
          <mxGeometry relative="1" as="geometry" />
        </mxCell>
        <mxCell id="Rr3VeNSQsfOW8-WBwf2K-116" value="true" style="edgeLabel;html=1;align=center;verticalAlign=middle;resizable=0;points=[];" parent="Rr3VeNSQsfOW8-WBwf2K-115" vertex="1" connectable="0">
          <mxGeometry x="-0.2099" y="6" relative="1" as="geometry">
            <mxPoint as="offset" />
          </mxGeometry>
        </mxCell>
        <mxCell id="Rr3VeNSQsfOW8-WBwf2K-117" value="" style="edgeStyle=orthogonalEdgeStyle;rounded=0;orthogonalLoop=1;jettySize=auto;html=1;" parent="WIyWlLk6GJQsqaUBKTNV-1" source="Rr3VeNSQsfOW8-WBwf2K-119" target="Rr3VeNSQsfOW8-WBwf2K-123" edge="1">
          <mxGeometry relative="1" as="geometry" />
        </mxCell>
        <mxCell id="Rr3VeNSQsfOW8-WBwf2K-118" value="false" style="edgeLabel;html=1;align=center;verticalAlign=middle;resizable=0;points=[];" parent="Rr3VeNSQsfOW8-WBwf2K-117" vertex="1" connectable="0">
          <mxGeometry x="-0.2061" y="1" relative="1" as="geometry">
            <mxPoint as="offset" />
          </mxGeometry>
        </mxCell>
        <mxCell id="Rr3VeNSQsfOW8-WBwf2K-119" value="&lt;div style=&quot;color: rgb(212, 212, 212); background-color: rgb(30, 30, 30); font-family: Consolas, &amp;quot;Courier New&amp;quot;, monospace; font-size: 14px; line-height: 19px;&quot;&gt;f&amp;gt;=&lt;span style=&quot;color: #b5cea8;&quot;&gt;0&lt;/span&gt;&amp;amp;&amp;amp;&lt;span style=&quot;color: #c8c8c8;&quot;&gt;key&lt;/span&gt;&amp;gt;&lt;span style=&quot;color: #c8c8c8;&quot;&gt;arr&lt;/span&gt;[&lt;span style=&quot;color: #c8c8c8;&quot;&gt;f&lt;/span&gt;][&lt;span style=&quot;color: #c8c8c8;&quot;&gt;i&lt;/span&gt;]&lt;/div&gt;" style="rhombus;whiteSpace=wrap;html=1;" parent="WIyWlLk6GJQsqaUBKTNV-1" vertex="1">
          <mxGeometry x="880" y="2470" width="180" height="140" as="geometry" />
        </mxCell>
        <mxCell id="Rr3VeNSQsfOW8-WBwf2K-120" style="edgeStyle=orthogonalEdgeStyle;rounded=0;orthogonalLoop=1;jettySize=auto;html=1;" parent="WIyWlLk6GJQsqaUBKTNV-1" source="Rr3VeNSQsfOW8-WBwf2K-121" edge="1">
          <mxGeometry relative="1" as="geometry">
            <mxPoint x="840" y="2540" as="targetPoint" />
          </mxGeometry>
        </mxCell>
        <mxCell id="Rr3VeNSQsfOW8-WBwf2K-121" value="&lt;div style=&quot;color: rgb(212, 212, 212); background-color: rgb(30, 30, 30); font-family: Consolas, &amp;quot;Courier New&amp;quot;, monospace; font-size: 14px; line-height: 19px;&quot;&gt;&lt;div&gt;&amp;nbsp;arr[&lt;span style=&quot;color: #c8c8c8;&quot;&gt;f&lt;/span&gt;+&lt;span style=&quot;color: #b5cea8;&quot;&gt;1&lt;/span&gt;][&lt;span style=&quot;color: #c8c8c8;&quot;&gt;i&lt;/span&gt;]=&lt;span style=&quot;color: #c8c8c8;&quot;&gt;arr&lt;/span&gt;[&lt;span style=&quot;color: #c8c8c8;&quot;&gt;f&lt;/span&gt;][&lt;span style=&quot;color: #c8c8c8;&quot;&gt;i&lt;/span&gt;]&lt;/div&gt;&lt;div&gt;&amp;nbsp;&amp;nbsp;&lt;span style=&quot;color: rgb(200, 200, 200);&quot;&gt;f&lt;/span&gt;-=&lt;span style=&quot;color: rgb(181, 206, 168);&quot;&gt;1&lt;/span&gt;;&lt;/div&gt;&lt;/div&gt;" style="whiteSpace=wrap;html=1;" parent="WIyWlLk6GJQsqaUBKTNV-1" vertex="1">
          <mxGeometry x="860" y="2690" width="220" height="60" as="geometry" />
        </mxCell>
        <mxCell id="Rr3VeNSQsfOW8-WBwf2K-122" style="edgeStyle=orthogonalEdgeStyle;rounded=0;orthogonalLoop=1;jettySize=auto;html=1;entryX=0;entryY=0.5;entryDx=0;entryDy=0;" parent="WIyWlLk6GJQsqaUBKTNV-1" source="Rr3VeNSQsfOW8-WBwf2K-123" target="Rr3VeNSQsfOW8-WBwf2K-110" edge="1">
          <mxGeometry relative="1" as="geometry" />
        </mxCell>
        <mxCell id="Rr3VeNSQsfOW8-WBwf2K-123" value="&lt;div style=&quot;color: rgb(212, 212, 212); background-color: rgb(30, 30, 30); font-family: Consolas, &amp;quot;Courier New&amp;quot;, monospace; font-size: 14px; line-height: 19px;&quot;&gt;arr[&lt;span style=&quot;color: #c8c8c8;&quot;&gt;f&lt;/span&gt;+&lt;span style=&quot;color: #b5cea8;&quot;&gt;1&lt;/span&gt;][&lt;span style=&quot;color: #c8c8c8;&quot;&gt;i&lt;/span&gt;]=&lt;span style=&quot;color: #c8c8c8;&quot;&gt;key&lt;/span&gt;;&lt;/div&gt;" style="whiteSpace=wrap;html=1;" parent="WIyWlLk6GJQsqaUBKTNV-1" vertex="1">
          <mxGeometry x="1170" y="2510" width="190" height="60" as="geometry" />
        </mxCell>
        <mxCell id="Rr3VeNSQsfOW8-WBwf2K-127" style="edgeStyle=orthogonalEdgeStyle;rounded=0;orthogonalLoop=1;jettySize=auto;html=1;" parent="WIyWlLk6GJQsqaUBKTNV-1" source="Rr3VeNSQsfOW8-WBwf2K-125" target="Rr3VeNSQsfOW8-WBwf2K-104" edge="1">
          <mxGeometry relative="1" as="geometry" />
        </mxCell>
        <mxCell id="hJrjNlMtUNx4-TJ2uSyi-2" value="true" style="edgeLabel;html=1;align=center;verticalAlign=middle;resizable=0;points=[];" vertex="1" connectable="0" parent="Rr3VeNSQsfOW8-WBwf2K-127">
          <mxGeometry x="-0.0481" y="3" relative="1" as="geometry">
            <mxPoint as="offset" />
          </mxGeometry>
        </mxCell>
        <mxCell id="Rr3VeNSQsfOW8-WBwf2K-134" value="" style="edgeStyle=orthogonalEdgeStyle;rounded=0;orthogonalLoop=1;jettySize=auto;html=1;" parent="WIyWlLk6GJQsqaUBKTNV-1" source="Rr3VeNSQsfOW8-WBwf2K-125" target="Rr3VeNSQsfOW8-WBwf2K-133" edge="1">
          <mxGeometry relative="1" as="geometry" />
        </mxCell>
        <mxCell id="Rr3VeNSQsfOW8-WBwf2K-125" value="choice==3" style="rhombus;whiteSpace=wrap;html=1;rounded=1;" parent="WIyWlLk6GJQsqaUBKTNV-1" vertex="1">
          <mxGeometry x="73.5" y="2510" width="111" height="110" as="geometry" />
        </mxCell>
        <mxCell id="Rr3VeNSQsfOW8-WBwf2K-136" value="" style="edgeStyle=orthogonalEdgeStyle;rounded=0;orthogonalLoop=1;jettySize=auto;html=1;" parent="WIyWlLk6GJQsqaUBKTNV-1" source="Rr3VeNSQsfOW8-WBwf2K-133" target="Rr3VeNSQsfOW8-WBwf2K-135" edge="1">
          <mxGeometry relative="1" as="geometry" />
        </mxCell>
        <mxCell id="hJrjNlMtUNx4-TJ2uSyi-4" value="" style="edgeStyle=orthogonalEdgeStyle;rounded=0;orthogonalLoop=1;jettySize=auto;html=1;" edge="1" parent="WIyWlLk6GJQsqaUBKTNV-1" source="Rr3VeNSQsfOW8-WBwf2K-133" target="hJrjNlMtUNx4-TJ2uSyi-5">
          <mxGeometry relative="1" as="geometry">
            <mxPoint x="129" y="3160" as="targetPoint" />
          </mxGeometry>
        </mxCell>
        <mxCell id="Rr3VeNSQsfOW8-WBwf2K-133" value="choice==4" style="rhombus;whiteSpace=wrap;html=1;rounded=1;" parent="WIyWlLk6GJQsqaUBKTNV-1" vertex="1">
          <mxGeometry x="73.5" y="2970" width="111" height="110" as="geometry" />
        </mxCell>
        <mxCell id="Rr3VeNSQsfOW8-WBwf2K-135" value="end" style="ellipse;whiteSpace=wrap;html=1;rounded=1;" parent="WIyWlLk6GJQsqaUBKTNV-1" vertex="1">
          <mxGeometry x="450" y="3050" width="121" height="55" as="geometry" />
        </mxCell>
        <mxCell id="hJrjNlMtUNx4-TJ2uSyi-6" style="edgeStyle=orthogonalEdgeStyle;rounded=0;orthogonalLoop=1;jettySize=auto;html=1;exitX=1;exitY=0.5;exitDx=0;exitDy=0;" edge="1" parent="WIyWlLk6GJQsqaUBKTNV-1" source="hJrjNlMtUNx4-TJ2uSyi-5">
          <mxGeometry relative="1" as="geometry">
            <mxPoint x="2138.5714285714284" y="2950" as="targetPoint" />
            <mxPoint x="189" y="3160" as="sourcePoint" />
          </mxGeometry>
        </mxCell>
        <mxCell id="hJrjNlMtUNx4-TJ2uSyi-5" value="Vui long nhap 1-4" style="shape=parallelogram;perimeter=parallelogramPerimeter;whiteSpace=wrap;html=1;fixedSize=1;" vertex="1" parent="WIyWlLk6GJQsqaUBKTNV-1">
          <mxGeometry x="69" y="3130" width="120" height="60" as="geometry" />
        </mxCell>
      </root>
    </mxGraphModel>
  </diagram>
</mxfile>
